<?xml version="1.0" encoding="UTF-8" standalone="no"?>
<!DOCTYPE svg PUBLIC "-//W3C//DTD SVG 1.1//EN" "http://www.w3.org/Graphics/SVG/1.1/DTD/svg11.dtd">
<svg xmlns="http://www.w3.org/2000/svg" version="1.1" viewBox="0.00 0.00 701.00 300.00">
<g stroke-width="2.00" fill="none" stroke-linecap="butt">
<path stroke="#e38a8a" vector-effect="non-scaling-stroke" d="
  M 343.62 0.00
  Q 334.44 0.57 331.99 1.48
  Q 320.33 5.83 308.27 8.94
  C 303.83 10.09 298.37 12.31 294.42 14.14
  C 282.05 19.87 270.47 25.48 260.10 33.85
  Q 250.42 41.66 249.13 42.77
  C 242.23 48.68 237.42 55.87 231.89 62.96
  Q 227.68 68.37 224.84 73.09
  Q 215.93 87.89 211.34 99.03
  C 205.37 113.53 202.72 125.27 200.59 139.06
  C 200.01 142.80 198.70 152.90 194.76 154.42
  Q 191.60 155.64 183.50 155.59
  C 179.03 155.56 178.46 153.02 179.35 149.18
  C 181.09 141.74 183.02 134.83 183.66 126.69
  C 184.31 118.48 186.17 109.05 184.27 100.31
  C 181.71 88.52 181.09 78.69 167.98 74.51
  Q 163.82 73.19 158.43 73.95
  C 131.34 77.77 106.71 98.51 104.12 126.75
  Q 103.05 138.47 103.77 156.75
  Q 103.96 161.56 105.18 166.19
  C 105.98 169.24 106.01 172.32 106.85 175.46
  C 108.28 180.83 109.22 185.87 111.14 191.43
  C 113.66 198.71 115.61 204.80 119.96 213.05
  C 120.96 214.94 121.68 217.03 122.57 219.02
  C 123.84 221.87 123.17 223.92 121.22 226.01
  C 113.78 234.00 107.57 240.40 96.30 242.60
  C 87.55 244.32 79.76 243.90 70.57 243.34
  Q 63.18 242.89 58.08 241.51
  C 48.78 239.01 35.95 233.87 29.97 225.99
  Q 26.29 221.15 25.17 215.49
  C 24.62 212.75 24.65 206.49 26.35 203.41
  C 28.03 200.34 29.10 197.99 26.52 194.90
  Q 22.67 190.29 16.59 190.45
  C 9.84 190.63 7.75 191.67 2.76 196.61
  C 1.17 198.18 0.59 199.95 0.00 202.00"
/>
<path stroke="#e38a8a" vector-effect="non-scaling-stroke" d="
  M 356.75 0.00
  Q 361.63 0.24 366.45 0.84
  C 373.17 1.68 380.14 5.87 385.75 6.96
  Q 393.18 8.40 395.62 9.38
  Q 404.30 12.85 412.96 16.37
  Q 419.92 19.20 428.03 24.44
  C 443.73 34.59 458.19 46.31 469.18 61.33
  C 478.93 74.65 488.05 89.50 493.26 105.27
  C 496.60 115.40 499.17 124.12 500.85 135.13
  Q 502.03 142.81 503.43 150.46
  Q 504.29 155.13 508.98 155.53
  Q 514.51 155.99 519.92 156.77
  A 0.98 0.98 0.0 0 0 521.02 156.00
  C 521.93 151.74 520.62 148.04 519.30 144.00
  C 518.16 140.53 518.09 134.75 517.35 130.69
  Q 515.42 120.12 515.51 116.75
  C 515.91 101.26 514.52 80.98 532.31 74.53
  C 538.46 72.30 544.97 74.55 551.02 76.63
  C 554.28 77.75 558.98 78.53 562.50 80.46
  C 568.22 83.61 574.67 87.71 579.27 92.27
  C 589.89 102.78 594.50 114.77 596.92 129.38
  C 597.75 134.40 597.59 139.77 597.82 145.00
  Q 597.99 149.11 596.63 156.67
  C 595.85 160.99 595.73 167.28 593.85 172.49
  C 592.36 176.60 592.03 180.89 590.57 185.18
  C 587.44 194.39 585.16 201.78 580.85 212.61
  C 578.80 217.78 573.94 223.33 579.00 228.53
  C 582.89 232.52 586.02 236.17 590.66 238.67
  C 598.69 242.99 608.53 244.34 617.14 243.93
  C 622.47 243.67 628.34 243.78 633.25 242.93
  Q 647.39 240.45 659.69 233.14
  C 665.43 229.73 669.00 225.62 671.04 219.54
  C 672.29 215.79 671.96 211.53 671.88 207.39
  A 0.06 0.05 45.0 0 0 671.77 207.39
  L 671.70 211.63
  Q 671.70 211.63 671.66 211.63
  Q 671.65 211.62 671.64 211.62
  Q 671.61 211.61 671.62 211.57
  Q 672.22 205.56 669.35 199.62"
/>
<path stroke="#980f0e" vector-effect="non-scaling-stroke" d="
  M 669.35 199.62
  L 671.16 200.61
  Q 671.57 200.82 671.82 200.44
  Q 672.42 199.51 672.63 198.43
  Q 672.65 198.27 672.79 198.21
  Q 672.92 198.15 673.07 198.13
  Q 673.38 198.08 673.34 197.77
  Q 673.22 196.65 673.93 195.80
  C 677.20 191.90 681.64 191.81 686.68 192.86
  Q 687.12 192.96 687.45 193.27
  Q 688.27 194.07 690.22 195.41
  Q 693.54 197.70 695.51 203.37
  C 696.68 206.72 694.81 208.54 693.17 211.05
  A 1.26 1.24 -86.0 0 1 692.67 211.49
  Q 691.93 211.86 691.87 212.63
  Q 691.84 213.10 691.56 213.48
  Q 688.36 217.72 685.30 222.03
  Q 684.47 223.20 683.87 223.62
  C 682.71 224.44 681.75 225.48 680.70 226.44
  C 678.82 228.16 676.39 229.62 674.50 231.65
  Q 673.35 232.88 672.15 233.71
  Q 670.78 234.65 669.46 235.68
  Q 669.08 235.98 668.91 236.42
  Q 668.73 236.89 668.28 237.10
  Q 667.92 237.26 667.85 237.64
  L 667.75 238.16
  Q 667.60 238.90 668.35 238.97
  L 669.51 239.07"
/>
<path stroke="#e38a8a" vector-effect="non-scaling-stroke" d="
  M 669.51 239.07
  Q 658.19 246.12 650.98 248.79
  C 647.50 250.07 644.07 251.69 641.29 252.60
  C 630.87 256.00 622.70 256.76 611.20 256.63
  C 601.46 256.52 592.01 253.46 582.90 250.02
  C 578.38 248.32 574.14 245.99 569.87 243.65
  C 566.83 241.99 565.30 241.85 562.98 244.50
  Q 556.54 251.87 545.64 262.15
  Q 543.19 264.46 533.72 270.04"
/>
<path stroke="#980f0e" vector-effect="non-scaling-stroke" d="
  M 533.72 270.04
  Q 533.11 269.90 532.45 270.18
  Q 532.32 270.24 532.39 270.11
  L 532.72 269.59
  Q 532.96 269.20 532.51 269.10
  Q 531.19 268.79 530.56 270.02
  Q 530.29 270.57 530.88 270.70
  L 532.27 271.03"
/>
<path stroke="#e38a8a" vector-effect="non-scaling-stroke" d="
  M 532.27 271.03
  C 519.18 277.53 504.32 277.93 489.91 276.60
  C 488.62 276.48 487.99 275.92 486.74 275.68
  A 0.08 0.08 0.0 0 1 486.75 275.52
  L 487.38 275.41
  A 0.02 0.01 32.6 0 0 487.37 275.38
  C 485.23 275.45 481.72 273.18 479.86 271.95"
/>
<path stroke="#980f0e" vector-effect="non-scaling-stroke" d="
  M 479.86 271.95
  L 484.54 272.70
  Q 485.09 272.79 484.79 272.32
  Q 484.44 271.76 483.80 271.64
  Q 483.35 271.55 483.04 271.21
  Q 482.00 270.06 480.79 269.09
  Q 480.37 268.75 479.88 268.52
  Q 478.57 267.92 478.05 266.45
  Q 477.93 266.11 477.68 265.85
  Q 476.68 264.82 476.43 263.43
  Q 476.35 263.00 476.08 262.66
  Q 474.22 260.41 476.69 258.60
  Q 478.81 257.04 480.21 255.46
  A 1.51 1.50 41.3 0 1 482.33 255.33
  L 486.68 259.17
  A 0.38 0.25 72.4 0 1 486.50 259.79
  L 486.17 259.55
  Q 486.09 259.49 486.13 259.59
  Q 486.63 260.72 487.48 261.66
  Q 487.62 261.83 487.80 261.70
  Q 487.94 261.60 488.08 261.65
  Q 488.25 261.70 488.32 261.94
  Q 488.39 262.16 488.37 262.49
  Q 488.36 262.63 488.50 262.63
  Q 488.66 262.63 488.82 262.64
  Q 489.25 262.66 489.09 262.26
  Q 488.18 260.01 488.86 258.11"
/>
<path stroke="#e38a8a" vector-effect="non-scaling-stroke" d="
  M 488.86 258.11
  C 491.15 260.69 491.82 263.30 495.19 264.82
  C 510.00 271.47 523.54 260.69 533.69 249.93
  Q 542.98 240.09 552.52 229.64
  Q 553.51 228.56 552.57 227.43
  C 548.50 222.55 544.83 216.61 541.43 212.23
  C 537.58 207.25 533.98 201.38 529.47 197.00
  Q 527.57 195.16 525.79 197.30
  C 520.79 203.29 515.40 208.70 508.63 212.78
  C 502.71 216.35 498.79 217.86 491.96 219.27
  C 485.41 220.63 478.34 220.92 471.50 221.61
  C 465.45 222.22 457.59 218.99 453.60 226.03
  Q 450.58 231.35 443.00 243.09
  C 435.83 254.22 427.83 262.66 416.85 269.19
  Q 414.80 270.42 412.81 271.97
  C 409.09 274.88 404.92 276.35 400.97 278.60
  Q 396.92 280.90 393.58 281.97
  Q 383.50 285.20 373.26 287.85
  C 370.95 288.45 368.89 289.76 366.51 290.47
  Q 347.41 296.20 329.19 289.69
  Q 324.13 287.89 320.62 287.14
  C 309.48 284.75 300.45 280.93 289.16 275.28
  C 287.02 274.21 285.07 272.62 282.89 271.38
  C 273.41 265.98 266.87 259.27 260.46 251.47
  C 254.37 244.05 249.65 235.21 244.75 226.72
  C 242.22 222.34 239.44 220.09 234.75 220.19
  Q 225.68 220.37 216.61 220.08
  C 208.53 219.82 203.29 218.17 195.90 215.16
  C 186.11 211.17 178.53 202.73 173.55 193.49
  A 1.31 1.31 0.0 0 0 171.50 193.15
  C 163.79 200.37 157.99 209.62 152.16 217.58
  C 149.45 221.29 145.53 226.08 148.07 229.18
  C 149.72 231.20 151.56 233.07 153.04 235.18
  C 158.30 242.71 163.70 249.67 171.40 255.33
  C 179.39 261.21 187.52 266.74 197.43 267.12
  C 204.48 267.39 210.99 257.76 214.90 253.20
  C 218.04 249.53 221.46 252.13 224.64 254.65
  C 228.92 258.05 226.91 264.87 223.46 267.96
  C 219.39 271.59 216.27 275.05 212.20 275.39
  Q 212.15 275.39 212.19 275.46
  Q 212.21 275.50 212.22 275.54
  Q 212.24 275.67 212.06 275.74
  Q 208.47 277.05 204.66 276.56
  Q 204.63 276.55 204.63 276.57
  Q 204.62 276.58 204.62 276.59
  Q 204.62 276.63 204.62 276.63
  L 208.75 276.65
  A 0.09 0.02 0.0 0 1 208.84 276.67
  L 208.83 276.96
  Q 208.82 277.14 208.64 277.14
  C 202.71 276.98 197.50 278.21 191.51 276.93
  C 189.07 276.40 186.50 276.54 184.21 275.95
  C 179.83 274.83 175.00 274.10 170.94 272.13
  C 168.25 270.83 165.29 270.21 162.73 268.50
  Q 158.06 265.40 153.40 260.85
  Q 144.80 252.47 136.57 243.73
  C 133.57 240.56 130.08 241.94 126.92 243.79
  C 117.22 249.48 105.00 254.55 93.52 255.63
  C 90.10 255.95 86.68 255.04 82.99 255.24
  Q 75.75 255.64 68.50 254.99
  C 58.72 254.11 47.75 249.82 39.29 245.39
  Q 35.19 243.25 22.65 235.34
  Q 16.97 231.76 12.51 226.76
  Q 4.97 218.29 0.00 208.99"
/>
<path stroke="#e38a8a" vector-effect="non-scaling-stroke" d="
  M 215.44 149.28
  Q 215.62 147.98 215.17 146.67
  A 0.21 0.21 0.0 0 0 214.76 146.73
  L 214.40 155.97
  A 0.97 0.96 -59.5 0 0 214.53 156.49
  C 215.07 157.42 214.81 158.43 215.07 159.25
  Q 215.76 161.41 216.97 162.20
  C 225.10 167.49 230.06 171.32 235.28 179.01
  Q 241.82 188.63 246.62 199.18
  Q 246.63 199.20 251.56 211.47
  C 256.75 224.39 263.21 236.70 272.77 246.98
  C 279.19 253.89 286.22 260.45 294.23 265.25
  Q 305.65 272.10 318.49 276.03
  Q 325.32 278.12 329.25 278.31
  Q 342.84 278.98 364.02 278.31
  C 369.81 278.12 374.78 276.46 380.34 275.05
  Q 396.37 270.97 409.40 261.15
  C 414.46 257.33 419.58 251.87 424.38 247.04
  Q 429.81 241.57 433.18 236.64
  C 438.00 229.59 440.89 222.61 444.41 215.39
  Q 446.45 211.20 448.44 205.85
  Q 452.89 193.92 459.40 182.92
  C 465.28 172.98 473.17 167.53 482.36 161.06
  C 488.04 157.07 488.15 152.53 487.20 145.61
  Q 486.49 140.36 485.64 135.12
  C 484.95 130.85 483.23 126.37 482.37 121.81
  C 481.73 118.37 480.25 115.58 479.27 112.26
  Q 478.02 108.03 476.82 105.45
  Q 475.30 102.16 473.84 98.85
  Q 468.25 86.18 459.71 75.30
  Q 448.03 60.42 444.38 56.88
  Q 438.66 51.32 426.84 42.85
  C 413.29 33.15 397.76 25.93 381.55 21.93
  C 378.02 21.06 374.02 20.77 370.22 20.09
  C 349.79 16.48 325.98 19.25 306.45 26.15
  C 300.32 28.32 294.75 31.01 288.99 33.97
  C 286.95 35.01 285.12 36.45 283.18 37.47
  C 274.93 41.78 267.34 48.47 260.72 54.97
  C 250.19 65.32 242.41 74.04 235.16 85.42
  C 230.52 92.68 226.78 101.28 223.14 109.48
  C 222.14 111.72 222.03 114.20 221.27 116.31
  C 219.61 120.89 218.58 125.78 217.23 130.46
  Q 215.81 135.40 215.59 139.70
  Q 215.34 144.48 215.37 149.27
  A 0.04 0.03 50.6 0 0 215.44 149.28"
/>
<path stroke="#e38a8a" vector-effect="non-scaling-stroke" d="
  M 531.82 158.92
  C 533.29 163.19 533.35 166.08 534.15 169.79
  C 534.91 173.29 537.16 175.69 539.53 178.23
  C 544.54 183.61 549.30 190.68 553.23 195.14
  Q 557.72 200.23 562.68 204.98
  A 1.64 1.63 -44.9 0 0 564.93 204.98
  Q 568.01 202.02 569.75 197.76
  C 571.17 194.29 572.76 191.35 573.52 187.60
  C 574.53 182.62 576.14 177.46 576.75 172.75
  Q 578.62 158.17 577.97 143.50
  C 577.68 136.98 576.24 129.87 575.17 123.11
  C 574.57 119.34 573.33 114.70 571.35 111.45
  C 567.72 105.51 563.91 103.00 558.84 99.42
  Q 550.52 93.55 540.25 94.75
  Q 528.67 96.11 527.40 107.01
  Q 526.16 117.73 527.71 135.22
  C 527.88 137.20 528.60 138.82 529.18 140.70
  C 531.04 146.62 529.72 152.81 531.82 158.92"
/>
<path stroke="#e38a8a" vector-effect="non-scaling-stroke" d="
  M 163.87 95.38
  Q 153.90 93.34 145.28 97.09
  C 138.94 99.85 128.23 108.53 126.47 116.25
  C 122.56 133.42 122.01 149.10 123.08 169.51
  C 123.73 181.89 126.58 189.77 131.93 202.14
  Q 132.50 203.45 133.27 204.40
  Q 134.25 205.61 135.38 204.54
  C 139.68 200.43 143.03 196.64 147.00 191.36
  Q 153.74 182.39 161.44 174.18
  Q 163.80 171.65 165.01 168.92
  Q 167.40 163.55 167.72 160.75
  Q 169.19 148.11 172.08 135.74
  C 173.32 130.42 173.42 123.03 174.19 116.05
  C 174.88 109.84 171.25 96.88 163.87 95.38"
/>
<path stroke="#e38a8a" vector-effect="non-scaling-stroke" d="
  M 487.97 174.64
  C 477.59 181.57 468.42 192.89 462.44 203.25
  C 459.90 207.64 466.74 208.69 469.50 208.82
  C 479.41 209.29 490.13 210.43 498.61 206.97
  C 508.40 202.98 514.40 195.65 518.96 186.37
  A 2.77 2.75 -46.5 0 0 518.90 183.81
  C 515.44 177.56 502.94 169.61 495.66 171.67
  C 492.82 172.48 490.40 173.01 487.97 174.64"
/>
<path stroke="#e38a8a" vector-effect="non-scaling-stroke" d="
  M 220.20 184.00
  C 214.44 179.32 204.78 170.61 196.74 172.00
  Q 190.28 173.11 185.05 177.06
  C 182.98 178.62 180.34 181.98 181.48 184.73
  C 183.88 190.50 187.14 196.45 191.61 200.56
  C 200.41 208.64 210.29 209.20 221.75 208.77
  C 224.83 208.65 233.10 207.51 232.95 203.11
  C 232.75 197.41 223.68 186.84 220.20 184.00"
/>
<path stroke="#b48583" vector-effect="non-scaling-stroke" d="
  M 488.86 258.11
  C 478.90 238.71 465.11 266.47 479.86 271.95"
/>
<path stroke="#b48583" vector-effect="non-scaling-stroke" d="
  M 532.27 271.03
  L 533.72 270.04"
/>
<path stroke="#b48583" vector-effect="non-scaling-stroke" d="
  M 669.51 239.07
  C 681.61 232.47 687.01 223.92 694.36 213.68
  C 700.31 205.40 696.91 199.06 690.27 192.97
  C 687.19 190.15 679.75 190.04 676.06 191.30
  Q 670.29 193.27 669.35 199.62"
/>
<path stroke="#e38a8a" vector-effect="non-scaling-stroke" d="
  M 325.09 89.14
  C 322.96 93.54 321.35 98.46 319.36 102.52
  Q 312.82 115.77 305.98 128.86
  C 305.02 130.70 303.90 134.05 302.03 136.39
  C 301.11 137.53 300.72 140.23 299.93 141.77
  Q 293.18 154.87 286.81 168.15
  C 282.48 177.18 278.38 185.49 269.08 188.87
  Q 267.26 189.52 266.04 190.11
  C 264.11 191.04 260.74 191.97 261.40 194.68
  Q 261.52 195.19 262.00 195.41
  Q 263.65 196.17 266.00 196.20
  C 276.66 196.37 286.67 195.82 296.78 195.98
  C 302.46 196.07 307.99 196.25 313.66 195.62
  A 1.37 1.37 0.0 0 0 314.82 193.82
  C 313.82 190.83 311.01 191.18 308.54 190.87
  C 300.36 189.87 295.66 182.21 296.55 174.55
  C 297.31 168.00 303.05 153.66 311.50 153.71
  Q 328.32 153.81 345.13 153.27
  C 350.01 153.11 354.88 152.92 359.19 155.58"
/>
<path stroke="#b48583" vector-effect="non-scaling-stroke" d="
  M 359.19 155.58
  Q 359.58 156.02 360.23 157.00
  C 363.25 161.54 364.81 166.65 366.79 171.31
  C 368.42 175.12 370.42 179.87 368.52 183.96
  C 364.83 191.89 358.31 191.27 351.00 192.00
  Q 349.54 192.15 348.82 193.80
  A 1.16 1.16 0.0 0 0 349.78 195.42
  Q 359.53 196.28 369.73 195.73"
/>
<path stroke="#e38a8a" vector-effect="non-scaling-stroke" d="
  M 369.73 195.73
  L 417.01 195.54"
/>
<path stroke="#b48583" vector-effect="non-scaling-stroke" d="
  M 417.01 195.54
  C 420.24 195.78 425.29 196.77 428.11 195.31
  A 1.85 1.85 0.0 0 0 428.97 192.96
  Q 428.62 192.12 427.38 191.97
  C 424.10 191.55 421.01 191.16 418.19 189.25
  Q 410.08 183.76 406.33 177.65
  Q 403.15 172.48 394.30 152.21
  C 392.67 148.47 390.32 143.49 388.64 139.10
  Q 388.02 137.46 387.59 136.59
  Q 377.38 115.63 372.66 104.23
  C 368.32 93.75 364.01 85.12 359.83 76.08
  C 357.47 70.96 355.41 61.95 351.00 58.36
  Q 349.67 57.27 347.72 57.29
  C 338.62 57.37 338.12 62.92 334.61 69.42
  Q 329.40 79.05 325.09 89.14"
/>
<path stroke="#980f0e" vector-effect="non-scaling-stroke" d="
  M 417.01 195.54
  Q 418.59 195.90 419.43 195.48
  A 0.18 0.18 0.0 0 0 419.35 195.13
  Q 409.80 195.20 400.25 195.40
  Q 399.35 195.42 400.24 195.33
  Q 400.77 195.28 401.75 195.04
  A 0.09 0.08 86.4 0 0 401.82 194.95
  L 401.90 193.19
  Q 401.92 192.69 402.42 192.68
  Q 403.86 192.67 405.05 193.41
  Q 405.14 193.46 405.87 193.10
  Q 406.01 193.03 406.07 192.88
  Q 406.31 192.31 406.93 192.36
  Q 408.38 192.47 409.83 192.44
  C 412.14 192.38 414.25 192.99 416.62 192.86
  Q 417.05 192.84 417.47 192.96
  Q 418.94 193.41 418.98 191.98
  A 0.91 0.91 0.0 0 0 418.51 191.15
  Q 417.10 190.36 415.36 190.12
  Q 414.86 190.05 414.50 189.71
  C 411.40 186.76 407.66 183.93 405.31 180.69
  Q 402.65 177.02 400.87 172.85
  Q 400.71 172.49 400.38 172.25
  C 399.80 171.84 398.90 167.50 397.79 165.71
  Q 396.62 163.80 395.79 161.85
  C 394.63 159.12 393.04 156.37 392.02 153.82
  C 390.15 149.13 389.13 144.97 386.90 141.05
  C 385.17 138.02 384.24 135.04 382.51 131.99
  C 379.09 125.94 375.97 117.80 373.76 112.71
  C 371.53 107.61 369.52 102.62 366.98 97.51
  Q 364.56 92.63 362.31 87.67
  Q 359.83 82.22 356.78 77.05
  C 355.96 75.65 355.78 74.08 355.00 72.75
  Q 353.81 70.70 352.99 68.45
  Q 352.81 67.97 352.87 67.48
  Q 352.93 67.00 352.54 66.89
  Q 352.05 66.75 351.93 66.25
  C 351.20 62.95 349.25 59.72 345.66 60.34
  C 340.94 61.17 339.69 66.58 337.63 69.91
  Q 335.86 72.76 334.12 75.63
  Q 332.97 77.51 331.28 81.68
  Q 329.60 85.81 326.79 89.35
  Q 326.53 89.67 326.15 89.53
  L 325.09 89.14"
/>
<path stroke="#980f0e" vector-effect="non-scaling-stroke" d="
  M 369.73 195.73
  Q 367.65 195.67 365.52 195.84
  Q 364.83 195.90 364.50 195.68
  Q 363.90 195.27 364.28 194.30
  A 0.27 0.27 0.0 0 1 364.75 194.24
  Q 364.85 194.38 364.99 194.39
  Q 365.24 194.40 365.11 194.19
  Q 364.41 193.07 363.32 192.50
  Q 363.27 192.48 363.23 192.51
  L 363.00 192.75
  A 0.37 0.36 -22.4 0 1 362.38 192.50
  Q 362.38 192.36 362.38 192.21
  A 0.67 0.66 -12.7 0 1 362.77 191.61
  C 368.17 189.22 373.42 183.39 371.49 176.93
  C 370.77 174.52 369.55 172.16 368.88 169.96
  Q 367.71 166.15 366.57 162.31
  Q 366.43 161.84 366.09 161.48
  C 364.15 159.43 363.83 156.65 361.77 154.65
  C 360.22 153.16 358.76 151.31 356.47 150.87
  Q 355.77 150.74 356.33 151.18
  L 358.22 152.67
  Q 358.59 152.96 358.70 153.42
  L 359.19 155.58"
/>
<path stroke="#e38a8a" vector-effect="non-scaling-stroke" d="
  M 314.84 135.73
  Q 313.08 138.89 311.00 142.82
  A 1.68 1.68 0.0 0 0 312.52 145.29
  L 349.51 144.67
  A 2.65 2.65 0.0 0 0 351.99 141.23
  Q 349.40 132.90 345.47 125.05
  A 5.52 4.23 -74.3 0 1 345.21 124.40
  Q 343.71 119.88 341.62 115.65
  Q 339.19 110.75 338.44 108.94
  C 337.10 105.74 335.92 101.68 333.84 98.91
  A 0.88 0.88 0.0 0 0 332.37 99.01
  Q 327.33 108.05 323.53 117.56
  C 322.89 119.16 322.43 120.85 321.61 122.38
  C 319.86 125.64 319.53 129.05 317.19 132.21
  Q 315.65 134.28 314.84 135.73"
/>
</g>
<path fill="#ffffff" d="
  M 0.00 0.00
  L 343.62 0.00
  Q 334.44 0.57 331.99 1.48
  Q 320.33 5.83 308.27 8.94
  C 303.83 10.09 298.37 12.31 294.42 14.14
  C 282.05 19.87 270.47 25.48 260.10 33.85
  Q 250.42 41.66 249.13 42.77
  C 242.23 48.68 237.42 55.87 231.89 62.96
  Q 227.68 68.37 224.84 73.09
  Q 215.93 87.89 211.34 99.03
  C 205.37 113.53 202.72 125.27 200.59 139.06
  C 200.01 142.80 198.70 152.90 194.76 154.42
  Q 191.60 155.64 183.50 155.59
  C 179.03 155.56 178.46 153.02 179.35 149.18
  C 181.09 141.74 183.02 134.83 183.66 126.69
  C 184.31 118.48 186.17 109.05 184.27 100.31
  C 181.71 88.52 181.09 78.69 167.98 74.51
  Q 163.82 73.19 158.43 73.95
  C 131.34 77.77 106.71 98.51 104.12 126.75
  Q 103.05 138.47 103.77 156.75
  Q 103.96 161.56 105.18 166.19
  C 105.98 169.24 106.01 172.32 106.85 175.46
  C 108.28 180.83 109.22 185.87 111.14 191.43
  C 113.66 198.71 115.61 204.80 119.96 213.05
  C 120.96 214.94 121.68 217.03 122.57 219.02
  C 123.84 221.87 123.17 223.92 121.22 226.01
  C 113.78 234.00 107.57 240.40 96.30 242.60
  C 87.55 244.32 79.76 243.90 70.57 243.34
  Q 63.18 242.89 58.08 241.51
  C 48.78 239.01 35.95 233.87 29.97 225.99
  Q 26.29 221.15 25.17 215.49
  C 24.62 212.75 24.65 206.49 26.35 203.41
  C 28.03 200.34 29.10 197.99 26.52 194.90
  Q 22.67 190.29 16.59 190.45
  C 9.84 190.63 7.75 191.67 2.76 196.61
  C 1.17 198.18 0.59 199.95 0.00 202.00
  L 0.00 0.00
  Z"
/>
<path fill="#c71415" d="
  M 343.62 0.00
  L 356.75 0.00
  Q 361.63 0.24 366.45 0.84
  C 373.17 1.68 380.14 5.87 385.75 6.96
  Q 393.18 8.40 395.62 9.38
  Q 404.30 12.85 412.96 16.37
  Q 419.92 19.20 428.03 24.44
  C 443.73 34.59 458.19 46.31 469.18 61.33
  C 478.93 74.65 488.05 89.50 493.26 105.27
  C 496.60 115.40 499.17 124.12 500.85 135.13
  Q 502.03 142.81 503.43 150.46
  Q 504.29 155.13 508.98 155.53
  Q 514.51 155.99 519.92 156.77
  A 0.98 0.98 0.0 0 0 521.02 156.00
  C 521.93 151.74 520.62 148.04 519.30 144.00
  C 518.16 140.53 518.09 134.75 517.35 130.69
  Q 515.42 120.12 515.51 116.75
  C 515.91 101.26 514.52 80.98 532.31 74.53
  C 538.46 72.30 544.97 74.55 551.02 76.63
  C 554.28 77.75 558.98 78.53 562.50 80.46
  C 568.22 83.61 574.67 87.71 579.27 92.27
  C 589.89 102.78 594.50 114.77 596.92 129.38
  C 597.75 134.40 597.59 139.77 597.82 145.00
  Q 597.99 149.11 596.63 156.67
  C 595.85 160.99 595.73 167.28 593.85 172.49
  C 592.36 176.60 592.03 180.89 590.57 185.18
  C 587.44 194.39 585.16 201.78 580.85 212.61
  C 578.80 217.78 573.94 223.33 579.00 228.53
  C 582.89 232.52 586.02 236.17 590.66 238.67
  C 598.69 242.99 608.53 244.34 617.14 243.93
  C 622.47 243.67 628.34 243.78 633.25 242.93
  Q 647.39 240.45 659.69 233.14
  C 665.43 229.73 669.00 225.62 671.04 219.54
  C 672.29 215.79 671.96 211.53 671.88 207.39
  A 0.06 0.05 45.0 0 0 671.77 207.39
  L 671.70 211.63
  Q 671.70 211.63 671.66 211.63
  Q 671.65 211.62 671.64 211.62
  Q 671.61 211.61 671.62 211.57
  Q 672.22 205.56 669.35 199.62
  L 671.16 200.61
  Q 671.57 200.82 671.82 200.44
  Q 672.42 199.51 672.63 198.43
  Q 672.65 198.27 672.79 198.21
  Q 672.92 198.15 673.07 198.13
  Q 673.38 198.08 673.34 197.77
  Q 673.22 196.65 673.93 195.80
  C 677.20 191.90 681.64 191.81 686.68 192.86
  Q 687.12 192.96 687.45 193.27
  Q 688.27 194.07 690.22 195.41
  Q 693.54 197.70 695.51 203.37
  C 696.68 206.72 694.81 208.54 693.17 211.05
  A 1.26 1.24 -86.0 0 1 692.67 211.49
  Q 691.93 211.86 691.87 212.63
  Q 691.84 213.10 691.56 213.48
  Q 688.36 217.72 685.30 222.03
  Q 684.47 223.20 683.87 223.62
  C 682.71 224.44 681.75 225.48 680.70 226.44
  C 678.82 228.16 676.39 229.62 674.50 231.65
  Q 673.35 232.88 672.15 233.71
  Q 670.78 234.65 669.46 235.68
  Q 669.08 235.98 668.91 236.42
  Q 668.73 236.89 668.28 237.10
  Q 667.92 237.26 667.85 237.64
  L 667.75 238.16
  Q 667.60 238.90 668.35 238.97
  L 669.51 239.07
  Q 658.19 246.12 650.98 248.79
  C 647.50 250.07 644.07 251.69 641.29 252.60
  C 630.87 256.00 622.70 256.76 611.20 256.63
  C 601.46 256.52 592.01 253.46 582.90 250.02
  C 578.38 248.32 574.14 245.99 569.87 243.65
  C 566.83 241.99 565.30 241.85 562.98 244.50
  Q 556.54 251.87 545.64 262.15
  Q 543.19 264.46 533.72 270.04
  Q 533.11 269.90 532.45 270.18
  Q 532.32 270.24 532.39 270.11
  L 532.72 269.59
  Q 532.96 269.20 532.51 269.10
  Q 531.19 268.79 530.56 270.02
  Q 530.29 270.57 530.88 270.70
  L 532.27 271.03
  C 519.18 277.53 504.32 277.93 489.91 276.60
  C 488.62 276.48 487.99 275.92 486.74 275.68
  A 0.08 0.08 0.0 0 1 486.75 275.52
  L 487.38 275.41
  A 0.02 0.01 32.6 0 0 487.37 275.38
  C 485.23 275.45 481.72 273.18 479.86 271.95
  L 484.54 272.70
  Q 485.09 272.79 484.79 272.32
  Q 484.44 271.76 483.80 271.64
  Q 483.35 271.55 483.04 271.21
  Q 482.00 270.06 480.79 269.09
  Q 480.37 268.75 479.88 268.52
  Q 478.57 267.92 478.05 266.45
  Q 477.93 266.11 477.68 265.85
  Q 476.68 264.82 476.43 263.43
  Q 476.35 263.00 476.08 262.66
  Q 474.22 260.41 476.69 258.60
  Q 478.81 257.04 480.21 255.46
  A 1.51 1.50 41.3 0 1 482.33 255.33
  L 486.68 259.17
  A 0.38 0.25 72.4 0 1 486.50 259.79
  L 486.17 259.55
  Q 486.09 259.49 486.13 259.59
  Q 486.63 260.72 487.48 261.66
  Q 487.62 261.83 487.80 261.70
  Q 487.94 261.60 488.08 261.65
  Q 488.25 261.70 488.32 261.94
  Q 488.39 262.16 488.37 262.49
  Q 488.36 262.63 488.50 262.63
  Q 488.66 262.63 488.82 262.64
  Q 489.25 262.66 489.09 262.26
  Q 488.18 260.01 488.86 258.11
  C 491.15 260.69 491.82 263.30 495.19 264.82
  C 510.00 271.47 523.54 260.69 533.69 249.93
  Q 542.98 240.09 552.52 229.64
  Q 553.51 228.56 552.57 227.43
  C 548.50 222.55 544.83 216.61 541.43 212.23
  C 537.58 207.25 533.98 201.38 529.47 197.00
  Q 527.57 195.16 525.79 197.30
  C 520.79 203.29 515.40 208.70 508.63 212.78
  C 502.71 216.35 498.79 217.86 491.96 219.27
  C 485.41 220.63 478.34 220.92 471.50 221.61
  C 465.45 222.22 457.59 218.99 453.60 226.03
  Q 450.58 231.35 443.00 243.09
  C 435.83 254.22 427.83 262.66 416.85 269.19
  Q 414.80 270.42 412.81 271.97
  C 409.09 274.88 404.92 276.35 400.97 278.60
  Q 396.92 280.90 393.58 281.97
  Q 383.50 285.20 373.26 287.85
  C 370.95 288.45 368.89 289.76 366.51 290.47
  Q 347.41 296.20 329.19 289.69
  Q 324.13 287.89 320.62 287.14
  C 309.48 284.75 300.45 280.93 289.16 275.28
  C 287.02 274.21 285.07 272.62 282.89 271.38
  C 273.41 265.98 266.87 259.27 260.46 251.47
  C 254.37 244.05 249.65 235.21 244.75 226.72
  C 242.22 222.34 239.44 220.09 234.75 220.19
  Q 225.68 220.37 216.61 220.08
  C 208.53 219.82 203.29 218.17 195.90 215.16
  C 186.11 211.17 178.53 202.73 173.55 193.49
  A 1.31 1.31 0.0 0 0 171.50 193.15
  C 163.79 200.37 157.99 209.62 152.16 217.58
  C 149.45 221.29 145.53 226.08 148.07 229.18
  C 149.72 231.20 151.56 233.07 153.04 235.18
  C 158.30 242.71 163.70 249.67 171.40 255.33
  C 179.39 261.21 187.52 266.74 197.43 267.12
  C 204.48 267.39 210.99 257.76 214.90 253.20
  C 218.04 249.53 221.46 252.13 224.64 254.65
  C 228.92 258.05 226.91 264.87 223.46 267.96
  C 219.39 271.59 216.27 275.05 212.20 275.39
  Q 212.15 275.39 212.19 275.46
  Q 212.21 275.50 212.22 275.54
  Q 212.24 275.67 212.06 275.74
  Q 208.47 277.05 204.66 276.56
  Q 204.63 276.55 204.63 276.57
  Q 204.62 276.58 204.62 276.59
  Q 204.62 276.63 204.62 276.63
  L 208.75 276.65
  A 0.09 0.02 0.0 0 1 208.84 276.67
  L 208.83 276.96
  Q 208.82 277.14 208.64 277.14
  C 202.71 276.98 197.50 278.21 191.51 276.93
  C 189.07 276.40 186.50 276.54 184.21 275.95
  C 179.83 274.83 175.00 274.10 170.94 272.13
  C 168.25 270.83 165.29 270.21 162.73 268.50
  Q 158.06 265.40 153.40 260.85
  Q 144.80 252.47 136.57 243.73
  C 133.57 240.56 130.08 241.94 126.92 243.79
  C 117.22 249.48 105.00 254.55 93.52 255.63
  C 90.10 255.95 86.68 255.04 82.99 255.24
  Q 75.75 255.64 68.50 254.99
  C 58.72 254.11 47.75 249.82 39.29 245.39
  Q 35.19 243.25 22.65 235.34
  Q 16.97 231.76 12.51 226.76
  Q 4.97 218.29 0.00 208.99
  L 0.00 202.00
  C 0.59 199.95 1.17 198.18 2.76 196.61
  C 7.75 191.67 9.84 190.63 16.59 190.45
  Q 22.67 190.29 26.52 194.90
  C 29.10 197.99 28.03 200.34 26.35 203.41
  C 24.65 206.49 24.62 212.75 25.17 215.49
  Q 26.29 221.15 29.97 225.99
  C 35.95 233.87 48.78 239.01 58.08 241.51
  Q 63.18 242.89 70.57 243.34
  C 79.76 243.90 87.55 244.32 96.30 242.60
  C 107.57 240.40 113.78 234.00 121.22 226.01
  C 123.17 223.92 123.84 221.87 122.57 219.02
  C 121.68 217.03 120.96 214.94 119.96 213.05
  C 115.61 204.80 113.66 198.71 111.14 191.43
  C 109.22 185.87 108.28 180.83 106.85 175.46
  C 106.01 172.32 105.98 169.24 105.18 166.19
  Q 103.96 161.56 103.77 156.75
  Q 103.05 138.47 104.12 126.75
  C 106.71 98.51 131.34 77.77 158.43 73.95
  Q 163.82 73.19 167.98 74.51
  C 181.09 78.69 181.71 88.52 184.27 100.31
  C 186.17 109.05 184.31 118.48 183.66 126.69
  C 183.02 134.83 181.09 141.74 179.35 149.18
  C 178.46 153.02 179.03 155.56 183.50 155.59
  Q 191.60 155.64 194.76 154.42
  C 198.70 152.90 200.01 142.80 200.59 139.06
  C 202.72 125.27 205.37 113.53 211.34 99.03
  Q 215.93 87.89 224.84 73.09
  Q 227.68 68.37 231.89 62.96
  C 237.42 55.87 242.23 48.68 249.13 42.77
  Q 250.42 41.66 260.10 33.85
  C 270.47 25.48 282.05 19.87 294.42 14.14
  C 298.37 12.31 303.83 10.09 308.27 8.94
  Q 320.33 5.83 331.99 1.48
  Q 334.44 0.57 343.62 0.00
  Z
  M 215.44 149.28
  Q 215.62 147.98 215.17 146.67
  A 0.21 0.21 0.0 0 0 214.76 146.73
  L 214.40 155.97
  A 0.97 0.96 -59.5 0 0 214.53 156.49
  C 215.07 157.42 214.81 158.43 215.07 159.25
  Q 215.76 161.41 216.97 162.20
  C 225.10 167.49 230.06 171.32 235.28 179.01
  Q 241.82 188.63 246.62 199.18
  Q 246.63 199.20 251.56 211.47
  C 256.75 224.39 263.21 236.70 272.77 246.98
  C 279.19 253.89 286.22 260.45 294.23 265.25
  Q 305.65 272.10 318.49 276.03
  Q 325.32 278.12 329.25 278.31
  Q 342.84 278.98 364.02 278.31
  C 369.81 278.12 374.78 276.46 380.34 275.05
  Q 396.37 270.97 409.40 261.15
  C 414.46 257.33 419.58 251.87 424.38 247.04
  Q 429.81 241.57 433.18 236.64
  C 438.00 229.59 440.89 222.61 444.41 215.39
  Q 446.45 211.20 448.44 205.85
  Q 452.89 193.92 459.40 182.92
  C 465.28 172.98 473.17 167.53 482.36 161.06
  C 488.04 157.07 488.15 152.53 487.20 145.61
  Q 486.49 140.36 485.64 135.12
  C 484.95 130.85 483.23 126.37 482.37 121.81
  C 481.73 118.37 480.25 115.58 479.27 112.26
  Q 478.02 108.03 476.82 105.45
  Q 475.30 102.16 473.84 98.85
  Q 468.25 86.18 459.71 75.30
  Q 448.03 60.42 444.38 56.88
  Q 438.66 51.32 426.84 42.85
  C 413.29 33.15 397.76 25.93 381.55 21.93
  C 378.02 21.06 374.02 20.77 370.22 20.09
  C 349.79 16.48 325.98 19.25 306.45 26.15
  C 300.32 28.32 294.75 31.01 288.99 33.97
  C 286.95 35.01 285.12 36.45 283.18 37.47
  C 274.93 41.78 267.34 48.47 260.72 54.97
  C 250.19 65.32 242.41 74.04 235.16 85.42
  C 230.52 92.68 226.78 101.28 223.14 109.48
  C 222.14 111.72 222.03 114.20 221.27 116.31
  C 219.61 120.89 218.58 125.78 217.23 130.46
  Q 215.81 135.40 215.59 139.70
  Q 215.34 144.48 215.37 149.27
  A 0.04 0.03 50.6 0 0 215.44 149.28
  Z
  M 531.82 158.92
  C 533.29 163.19 533.35 166.08 534.15 169.79
  C 534.91 173.29 537.16 175.69 539.53 178.23
  C 544.54 183.61 549.30 190.68 553.23 195.14
  Q 557.72 200.23 562.68 204.98
  A 1.64 1.63 -44.9 0 0 564.93 204.98
  Q 568.01 202.02 569.75 197.76
  C 571.17 194.29 572.76 191.35 573.52 187.60
  C 574.53 182.62 576.14 177.46 576.75 172.75
  Q 578.62 158.17 577.97 143.50
  C 577.68 136.98 576.24 129.87 575.17 123.11
  C 574.57 119.34 573.33 114.70 571.35 111.45
  C 567.72 105.51 563.91 103.00 558.84 99.42
  Q 550.52 93.55 540.25 94.75
  Q 528.67 96.11 527.40 107.01
  Q 526.16 117.73 527.71 135.22
  C 527.88 137.20 528.60 138.82 529.18 140.70
  C 531.04 146.62 529.72 152.81 531.82 158.92
  Z
  M 163.87 95.38
  Q 153.90 93.34 145.28 97.09
  C 138.94 99.85 128.23 108.53 126.47 116.25
  C 122.56 133.42 122.01 149.10 123.08 169.51
  C 123.73 181.89 126.58 189.77 131.93 202.14
  Q 132.50 203.45 133.27 204.40
  Q 134.25 205.61 135.38 204.54
  C 139.68 200.43 143.03 196.64 147.00 191.36
  Q 153.74 182.39 161.44 174.18
  Q 163.80 171.65 165.01 168.92
  Q 167.40 163.55 167.72 160.75
  Q 169.19 148.11 172.08 135.74
  C 173.32 130.42 173.42 123.03 174.19 116.05
  C 174.88 109.84 171.25 96.88 163.87 95.38
  Z
  M 487.97 174.64
  C 477.59 181.57 468.42 192.89 462.44 203.25
  C 459.90 207.64 466.74 208.69 469.50 208.82
  C 479.41 209.29 490.13 210.43 498.61 206.97
  C 508.40 202.98 514.40 195.65 518.96 186.37
  A 2.77 2.75 -46.5 0 0 518.90 183.81
  C 515.44 177.56 502.94 169.61 495.66 171.67
  C 492.82 172.48 490.40 173.01 487.97 174.64
  Z
  M 220.20 184.00
  C 214.44 179.32 204.78 170.61 196.74 172.00
  Q 190.28 173.11 185.05 177.06
  C 182.98 178.62 180.34 181.98 181.48 184.73
  C 183.88 190.50 187.14 196.45 191.61 200.56
  C 200.41 208.64 210.29 209.20 221.75 208.77
  C 224.83 208.65 233.10 207.51 232.95 203.11
  C 232.75 197.41 223.68 186.84 220.20 184.00
  Z"
/>
<path fill="#ffffff" d="
  M 356.75 0.00
  L 701.00 0.00
  L 701.00 300.00
  L 0.00 300.00
  L 0.00 208.99
  Q 4.97 218.29 12.51 226.76
  Q 16.97 231.76 22.65 235.34
  Q 35.19 243.25 39.29 245.39
  C 47.75 249.82 58.72 254.11 68.50 254.99
  Q 75.75 255.64 82.99 255.24
  C 86.68 255.04 90.10 255.95 93.52 255.63
  C 105.00 254.55 117.22 249.48 126.92 243.79
  C 130.08 241.94 133.57 240.56 136.57 243.73
  Q 144.80 252.47 153.40 260.85
  Q 158.06 265.40 162.73 268.50
  C 165.29 270.21 168.25 270.83 170.94 272.13
  C 175.00 274.10 179.83 274.83 184.21 275.95
  C 186.50 276.54 189.07 276.40 191.51 276.93
  C 197.50 278.21 202.71 276.98 208.64 277.14
  Q 208.82 277.14 208.83 276.96
  L 208.84 276.67
  A 0.09 0.02 0.0 0 0 208.75 276.65
  L 204.62 276.63
  Q 204.62 276.63 204.62 276.59
  Q 204.62 276.58 204.63 276.57
  Q 204.63 276.55 204.66 276.56
  Q 208.47 277.05 212.06 275.74
  Q 212.24 275.67 212.22 275.54
  Q 212.21 275.50 212.19 275.46
  Q 212.15 275.39 212.20 275.39
  C 216.27 275.05 219.39 271.59 223.46 267.96
  C 226.91 264.87 228.92 258.05 224.64 254.65
  C 221.46 252.13 218.04 249.53 214.90 253.20
  C 210.99 257.76 204.48 267.39 197.43 267.12
  C 187.52 266.74 179.39 261.21 171.40 255.33
  C 163.70 249.67 158.30 242.71 153.04 235.18
  C 151.56 233.07 149.72 231.20 148.07 229.18
  C 145.53 226.08 149.45 221.29 152.16 217.58
  C 157.99 209.62 163.79 200.37 171.50 193.15
  A 1.31 1.31 0.0 0 1 173.55 193.49
  C 178.53 202.73 186.11 211.17 195.90 215.16
  C 203.29 218.17 208.53 219.82 216.61 220.08
  Q 225.68 220.37 234.75 220.19
  C 239.44 220.09 242.22 222.34 244.75 226.72
  C 249.65 235.21 254.37 244.05 260.46 251.47
  C 266.87 259.27 273.41 265.98 282.89 271.38
  C 285.07 272.62 287.02 274.21 289.16 275.28
  C 300.45 280.93 309.48 284.75 320.62 287.14
  Q 324.13 287.89 329.19 289.69
  Q 347.41 296.20 366.51 290.47
  C 368.89 289.76 370.95 288.45 373.26 287.85
  Q 383.50 285.20 393.58 281.97
  Q 396.92 280.90 400.97 278.60
  C 404.92 276.35 409.09 274.88 412.81 271.97
  Q 414.80 270.42 416.85 269.19
  C 427.83 262.66 435.83 254.22 443.00 243.09
  Q 450.58 231.35 453.60 226.03
  C 457.59 218.99 465.45 222.22 471.50 221.61
  C 478.34 220.92 485.41 220.63 491.96 219.27
  C 498.79 217.86 502.71 216.35 508.63 212.78
  C 515.40 208.70 520.79 203.29 525.79 197.30
  Q 527.57 195.16 529.47 197.00
  C 533.98 201.38 537.58 207.25 541.43 212.23
  C 544.83 216.61 548.50 222.55 552.57 227.43
  Q 553.51 228.56 552.52 229.64
  Q 542.98 240.09 533.69 249.93
  C 523.54 260.69 510.00 271.47 495.19 264.82
  C 491.82 263.30 491.15 260.69 488.86 258.11
  C 478.90 238.71 465.11 266.47 479.86 271.95
  C 481.72 273.18 485.23 275.45 487.37 275.38
  A 0.02 0.01 32.6 0 1 487.38 275.41
  L 486.75 275.52
  A 0.08 0.08 0.0 0 0 486.74 275.68
  C 487.99 275.92 488.62 276.48 489.91 276.60
  C 504.32 277.93 519.18 277.53 532.27 271.03
  L 533.72 270.04
  Q 543.19 264.46 545.64 262.15
  Q 556.54 251.87 562.98 244.50
  C 565.30 241.85 566.83 241.99 569.87 243.65
  C 574.14 245.99 578.38 248.32 582.90 250.02
  C 592.01 253.46 601.46 256.52 611.20 256.63
  C 622.70 256.76 630.87 256.00 641.29 252.60
  C 644.07 251.69 647.50 250.07 650.98 248.79
  Q 658.19 246.12 669.51 239.07
  C 681.61 232.47 687.01 223.92 694.36 213.68
  C 700.31 205.40 696.91 199.06 690.27 192.97
  C 687.19 190.15 679.75 190.04 676.06 191.30
  Q 670.29 193.27 669.35 199.62
  Q 672.22 205.56 671.62 211.57
  Q 671.61 211.61 671.64 211.62
  Q 671.65 211.62 671.66 211.63
  Q 671.70 211.63 671.70 211.63
  L 671.77 207.39
  A 0.06 0.05 45.0 0 1 671.88 207.39
  C 671.96 211.53 672.29 215.79 671.04 219.54
  C 669.00 225.62 665.43 229.73 659.69 233.14
  Q 647.39 240.45 633.25 242.93
  C 628.34 243.78 622.47 243.67 617.14 243.93
  C 608.53 244.34 598.69 242.99 590.66 238.67
  C 586.02 236.17 582.89 232.52 579.00 228.53
  C 573.94 223.33 578.80 217.78 580.85 212.61
  C 585.16 201.78 587.44 194.39 590.57 185.18
  C 592.03 180.89 592.36 176.60 593.85 172.49
  C 595.73 167.28 595.85 160.99 596.63 156.67
  Q 597.99 149.11 597.82 145.00
  C 597.59 139.77 597.75 134.40 596.92 129.38
  C 594.50 114.77 589.89 102.78 579.27 92.27
  C 574.67 87.71 568.22 83.61 562.50 80.46
  C 558.98 78.53 554.28 77.75 551.02 76.63
  C 544.97 74.55 538.46 72.30 532.31 74.53
  C 514.52 80.98 515.91 101.26 515.51 116.75
  Q 515.42 120.12 517.35 130.69
  C 518.09 134.75 518.16 140.53 519.30 144.00
  C 520.62 148.04 521.93 151.74 521.02 156.00
  A 0.98 0.98 0.0 0 1 519.92 156.77
  Q 514.51 155.99 508.98 155.53
  Q 504.29 155.13 503.43 150.46
  Q 502.03 142.81 500.85 135.13
  C 499.17 124.12 496.60 115.40 493.26 105.27
  C 488.05 89.50 478.93 74.65 469.18 61.33
  C 458.19 46.31 443.73 34.59 428.03 24.44
  Q 419.92 19.20 412.96 16.37
  Q 404.30 12.85 395.62 9.38
  Q 393.18 8.40 385.75 6.96
  C 380.14 5.87 373.17 1.68 366.45 0.84
  Q 361.63 0.24 356.75 0.00
  Z"
/>
<path fill="#ffffff" d="
  M 215.37 149.27
  Q 215.34 144.48 215.59 139.70
  Q 215.81 135.40 217.23 130.46
  C 218.58 125.78 219.61 120.89 221.27 116.31
  C 222.03 114.20 222.14 111.72 223.14 109.48
  C 226.78 101.28 230.52 92.68 235.16 85.42
  C 242.41 74.04 250.19 65.32 260.72 54.97
  C 267.34 48.47 274.93 41.78 283.18 37.47
  C 285.12 36.45 286.95 35.01 288.99 33.97
  C 294.75 31.01 300.32 28.32 306.45 26.15
  C 325.98 19.25 349.79 16.48 370.22 20.09
  C 374.02 20.77 378.02 21.06 381.55 21.93
  C 397.76 25.93 413.29 33.15 426.84 42.85
  Q 438.66 51.32 444.38 56.88
  Q 448.03 60.42 459.71 75.30
  Q 468.25 86.18 473.84 98.85
  Q 475.30 102.16 476.82 105.45
  Q 478.02 108.03 479.27 112.26
  C 480.25 115.58 481.73 118.37 482.37 121.81
  C 483.23 126.37 484.95 130.85 485.64 135.12
  Q 486.49 140.36 487.20 145.61
  C 488.15 152.53 488.04 157.07 482.36 161.06
  C 473.17 167.53 465.28 172.98 459.40 182.92
  Q 452.89 193.92 448.44 205.85
  Q 446.45 211.20 444.41 215.39
  C 440.89 222.61 438.00 229.59 433.18 236.64
  Q 429.81 241.57 424.38 247.04
  C 419.58 251.87 414.46 257.33 409.40 261.15
  Q 396.37 270.97 380.34 275.05
  C 374.78 276.46 369.81 278.12 364.02 278.31
  Q 342.84 278.98 329.25 278.31
  Q 325.32 278.12 318.49 276.03
  Q 305.65 272.10 294.23 265.25
  C 286.22 260.45 279.19 253.89 272.77 246.98
  C 263.21 236.70 256.75 224.39 251.56 211.47
  Q 246.63 199.20 246.62 199.18
  Q 241.82 188.63 235.28 179.01
  C 230.06 171.32 225.10 167.49 216.97 162.20
  Q 215.76 161.41 215.07 159.25
  C 214.81 158.43 215.07 157.42 214.53 156.49
  A 0.97 0.96 -59.5 0 1 214.40 155.97
  L 214.76 146.73
  A 0.21 0.21 0.0 0 1 215.17 146.67
  Q 215.62 147.98 215.44 149.28
  A 0.04 0.03 50.6 0 1 215.37 149.27
  Z
  M 325.09 89.14
  C 322.96 93.54 321.35 98.46 319.36 102.52
  Q 312.82 115.77 305.98 128.86
  C 305.02 130.70 303.90 134.05 302.03 136.39
  C 301.11 137.53 300.72 140.23 299.93 141.77
  Q 293.18 154.87 286.81 168.15
  C 282.48 177.18 278.38 185.49 269.08 188.87
  Q 267.26 189.52 266.04 190.11
  C 264.11 191.04 260.74 191.97 261.40 194.68
  Q 261.52 195.19 262.00 195.41
  Q 263.65 196.17 266.00 196.20
  C 276.66 196.37 286.67 195.82 296.78 195.98
  C 302.46 196.07 307.99 196.25 313.66 195.62
  A 1.37 1.37 0.0 0 0 314.82 193.82
  C 313.82 190.83 311.01 191.18 308.54 190.87
  C 300.36 189.87 295.66 182.21 296.55 174.55
  C 297.31 168.00 303.05 153.66 311.50 153.71
  Q 328.32 153.81 345.13 153.27
  C 350.01 153.11 354.88 152.92 359.19 155.58
  Q 359.58 156.02 360.23 157.00
  C 363.25 161.54 364.81 166.65 366.79 171.31
  C 368.42 175.12 370.42 179.87 368.52 183.96
  C 364.83 191.89 358.31 191.27 351.00 192.00
  Q 349.54 192.15 348.82 193.80
  A 1.16 1.16 0.0 0 0 349.78 195.42
  Q 359.53 196.28 369.73 195.73
  L 417.01 195.54
  C 420.24 195.78 425.29 196.77 428.11 195.31
  A 1.85 1.85 0.0 0 0 428.97 192.96
  Q 428.62 192.12 427.38 191.97
  C 424.10 191.55 421.01 191.16 418.19 189.25
  Q 410.08 183.76 406.33 177.65
  Q 403.15 172.48 394.30 152.21
  C 392.67 148.47 390.32 143.49 388.64 139.10
  Q 388.02 137.46 387.59 136.59
  Q 377.38 115.63 372.66 104.23
  C 368.32 93.75 364.01 85.12 359.83 76.08
  C 357.47 70.96 355.41 61.95 351.00 58.36
  Q 349.67 57.27 347.72 57.29
  C 338.62 57.37 338.12 62.92 334.61 69.42
  Q 329.40 79.05 325.09 89.14
  Z"
/>
<path fill="#680a06" d="
  M 417.01 195.54
  Q 418.59 195.90 419.43 195.48
  A 0.18 0.18 0.0 0 0 419.35 195.13
  Q 409.80 195.20 400.25 195.40
  Q 399.35 195.42 400.24 195.33
  Q 400.77 195.28 401.75 195.04
  A 0.09 0.08 86.4 0 0 401.82 194.95
  L 401.90 193.19
  Q 401.92 192.69 402.42 192.68
  Q 403.86 192.67 405.05 193.41
  Q 405.14 193.46 405.87 193.10
  Q 406.01 193.03 406.07 192.88
  Q 406.31 192.31 406.93 192.36
  Q 408.38 192.47 409.83 192.44
  C 412.14 192.38 414.25 192.99 416.62 192.86
  Q 417.05 192.84 417.47 192.96
  Q 418.94 193.41 418.98 191.98
  A 0.91 0.91 0.0 0 0 418.51 191.15
  Q 417.10 190.36 415.36 190.12
  Q 414.86 190.05 414.50 189.71
  C 411.40 186.76 407.66 183.93 405.31 180.69
  Q 402.65 177.02 400.87 172.85
  Q 400.71 172.49 400.38 172.25
  C 399.80 171.84 398.90 167.50 397.79 165.71
  Q 396.62 163.80 395.79 161.85
  C 394.63 159.12 393.04 156.37 392.02 153.82
  C 390.15 149.13 389.13 144.97 386.90 141.05
  C 385.17 138.02 384.24 135.04 382.51 131.99
  C 379.09 125.94 375.97 117.80 373.76 112.71
  C 371.53 107.61 369.52 102.62 366.98 97.51
  Q 364.56 92.63 362.31 87.67
  Q 359.83 82.22 356.78 77.05
  C 355.96 75.65 355.78 74.08 355.00 72.75
  Q 353.81 70.70 352.99 68.45
  Q 352.81 67.97 352.87 67.48
  Q 352.93 67.00 352.54 66.89
  Q 352.05 66.75 351.93 66.25
  C 351.20 62.95 349.25 59.72 345.66 60.34
  C 340.94 61.17 339.69 66.58 337.63 69.91
  Q 335.86 72.76 334.12 75.63
  Q 332.97 77.51 331.28 81.68
  Q 329.60 85.81 326.79 89.35
  Q 326.53 89.67 326.15 89.53
  L 325.09 89.14
  Q 329.40 79.05 334.61 69.42
  C 338.12 62.92 338.62 57.37 347.72 57.29
  Q 349.67 57.27 351.00 58.36
  C 355.41 61.95 357.47 70.96 359.83 76.08
  C 364.01 85.12 368.32 93.75 372.66 104.23
  Q 377.38 115.63 387.59 136.59
  Q 388.02 137.46 388.64 139.10
  C 390.32 143.49 392.67 148.47 394.30 152.21
  Q 403.15 172.48 406.33 177.65
  Q 410.08 183.76 418.19 189.25
  C 421.01 191.16 424.10 191.55 427.38 191.97
  Q 428.62 192.12 428.97 192.96
  A 1.85 1.85 0.0 0 1 428.11 195.31
  C 425.29 196.77 420.24 195.78 417.01 195.54
  Z"
/>
<path fill="#c71415" d="
  M 417.01 195.54
  L 369.73 195.73
  Q 367.65 195.67 365.52 195.84
  Q 364.83 195.90 364.50 195.68
  Q 363.90 195.27 364.28 194.30
  A 0.27 0.27 0.0 0 1 364.75 194.24
  Q 364.85 194.38 364.99 194.39
  Q 365.24 194.40 365.11 194.19
  Q 364.41 193.07 363.32 192.50
  Q 363.27 192.48 363.23 192.51
  L 363.00 192.75
  A 0.37 0.36 -22.4 0 1 362.38 192.50
  Q 362.38 192.36 362.38 192.21
  A 0.67 0.66 -12.7 0 1 362.77 191.61
  C 368.17 189.22 373.42 183.39 371.49 176.93
  C 370.77 174.52 369.55 172.16 368.88 169.96
  Q 367.71 166.15 366.57 162.31
  Q 366.43 161.84 366.09 161.48
  C 364.15 159.43 363.83 156.65 361.77 154.65
  C 360.22 153.16 358.76 151.31 356.47 150.87
  Q 355.77 150.74 356.33 151.18
  L 358.22 152.67
  Q 358.59 152.96 358.70 153.42
  L 359.19 155.58
  C 354.88 152.92 350.01 153.11 345.13 153.27
  Q 328.32 153.81 311.50 153.71
  C 303.05 153.66 297.31 168.00 296.55 174.55
  C 295.66 182.21 300.36 189.87 308.54 190.87
  C 311.01 191.18 313.82 190.83 314.82 193.82
  A 1.37 1.37 0.0 0 1 313.66 195.62
  C 307.99 196.25 302.46 196.07 296.78 195.98
  C 286.67 195.82 276.66 196.37 266.00 196.20
  Q 263.65 196.17 262.00 195.41
  Q 261.52 195.19 261.40 194.68
  C 260.74 191.97 264.11 191.04 266.04 190.11
  Q 267.26 189.52 269.08 188.87
  C 278.38 185.49 282.48 177.18 286.81 168.15
  Q 293.18 154.87 299.93 141.77
  C 300.72 140.23 301.11 137.53 302.03 136.39
  C 303.90 134.05 305.02 130.70 305.98 128.86
  Q 312.82 115.77 319.36 102.52
  C 321.35 98.46 322.96 93.54 325.09 89.14
  L 326.15 89.53
  Q 326.53 89.67 326.79 89.35
  Q 329.60 85.81 331.28 81.68
  Q 332.97 77.51 334.12 75.63
  Q 335.86 72.76 337.63 69.91
  C 339.69 66.58 340.94 61.17 345.66 60.34
  C 349.25 59.72 351.20 62.95 351.93 66.25
  Q 352.05 66.75 352.54 66.89
  Q 352.93 67.00 352.87 67.48
  Q 352.81 67.97 352.99 68.45
  Q 353.81 70.70 355.00 72.75
  C 355.78 74.08 355.96 75.65 356.78 77.05
  Q 359.83 82.22 362.31 87.67
  Q 364.56 92.63 366.98 97.51
  C 369.52 102.62 371.53 107.61 373.76 112.71
  C 375.97 117.80 379.09 125.94 382.51 131.99
  C 384.24 135.04 385.17 138.02 386.90 141.05
  C 389.13 144.97 390.15 149.13 392.02 153.82
  C 393.04 156.37 394.63 159.12 395.79 161.85
  Q 396.62 163.80 397.79 165.71
  C 398.90 167.50 399.80 171.84 400.38 172.25
  Q 400.71 172.49 400.87 172.85
  Q 402.65 177.02 405.31 180.69
  C 407.66 183.93 411.40 186.76 414.50 189.71
  Q 414.86 190.05 415.36 190.12
  Q 417.10 190.36 418.51 191.15
  A 0.91 0.91 0.0 0 1 418.98 191.98
  Q 418.94 193.41 417.47 192.96
  Q 417.05 192.84 416.62 192.86
  C 414.25 192.99 412.14 192.38 409.83 192.44
  Q 408.38 192.47 406.93 192.36
  Q 406.31 192.31 406.07 192.88
  Q 406.01 193.03 405.87 193.10
  Q 405.14 193.46 405.05 193.41
  Q 403.86 192.67 402.42 192.68
  Q 401.92 192.69 401.90 193.19
  L 401.82 194.95
  A 0.09 0.08 86.4 0 1 401.75 195.04
  Q 400.77 195.28 400.24 195.33
  Q 399.35 195.42 400.25 195.40
  Q 409.80 195.20 419.35 195.13
  A 0.18 0.18 0.0 0 1 419.43 195.48
  Q 418.59 195.90 417.01 195.54
  Z
  M 314.84 135.73
  Q 313.08 138.89 311.00 142.82
  A 1.68 1.68 0.0 0 0 312.52 145.29
  L 349.51 144.67
  A 2.65 2.65 0.0 0 0 351.99 141.23
  Q 349.40 132.90 345.47 125.05
  A 5.52 4.23 -74.3 0 1 345.21 124.40
  Q 343.71 119.88 341.62 115.65
  Q 339.19 110.75 338.44 108.94
  C 337.10 105.74 335.92 101.68 333.84 98.91
  A 0.88 0.88 0.0 0 0 332.37 99.01
  Q 327.33 108.05 323.53 117.56
  C 322.89 119.16 322.43 120.85 321.61 122.38
  C 319.86 125.64 319.53 129.05 317.19 132.21
  Q 315.65 134.28 314.84 135.73
  Z"
/>
<path fill="#ffffff" d="
  M 534.15 169.79
  C 533.35 166.08 533.29 163.19 531.82 158.92
  C 529.72 152.81 531.04 146.62 529.18 140.70
  C 528.60 138.82 527.88 137.20 527.71 135.22
  Q 526.16 117.73 527.40 107.01
  Q 528.67 96.11 540.25 94.75
  Q 550.52 93.55 558.84 99.42
  C 563.91 103.00 567.72 105.51 571.35 111.45
  C 573.33 114.70 574.57 119.34 575.17 123.11
  C 576.24 129.87 577.68 136.98 577.97 143.50
  Q 578.62 158.17 576.75 172.75
  C 576.14 177.46 574.53 182.62 573.52 187.60
  C 572.76 191.35 571.17 194.29 569.75 197.76
  Q 568.01 202.02 564.93 204.98
  A 1.64 1.63 -44.9 0 1 562.68 204.98
  Q 557.72 200.23 553.23 195.14
  C 549.30 190.68 544.54 183.61 539.53 178.23
  C 537.16 175.69 534.91 173.29 534.15 169.79
  Z"
/>
<path fill="#ffffff" d="
  M 163.87 95.38
  C 171.25 96.88 174.88 109.84 174.19 116.05
  C 173.42 123.03 173.32 130.42 172.08 135.74
  Q 169.19 148.11 167.72 160.75
  Q 167.40 163.55 165.01 168.92
  Q 163.80 171.65 161.44 174.18
  Q 153.74 182.39 147.00 191.36
  C 143.03 196.64 139.68 200.43 135.38 204.54
  Q 134.25 205.61 133.27 204.40
  Q 132.50 203.45 131.93 202.14
  C 126.58 189.77 123.73 181.89 123.08 169.51
  C 122.01 149.10 122.56 133.42 126.47 116.25
  C 128.23 108.53 138.94 99.85 145.28 97.09
  Q 153.90 93.34 163.87 95.38
  Z"
/>
<path fill="#ffffff" d="
  M 317.19 132.21
  C 319.53 129.05 319.86 125.64 321.61 122.38
  C 322.43 120.85 322.89 119.16 323.53 117.56
  Q 327.33 108.05 332.37 99.01
  A 0.88 0.88 0.0 0 1 333.84 98.91
  C 335.92 101.68 337.10 105.74 338.44 108.94
  Q 339.19 110.75 341.62 115.65
  Q 343.71 119.88 345.21 124.40
  A 5.52 4.23 -74.3 0 0 345.47 125.05
  Q 349.40 132.90 351.99 141.23
  A 2.65 2.65 0.0 0 1 349.51 144.67
  L 312.52 145.29
  A 1.68 1.68 0.0 0 1 311.00 142.82
  Q 313.08 138.89 314.84 135.73
  Q 315.65 134.28 317.19 132.21
  Z"
/>
<path fill="#680a06" d="
  M 369.73 195.73
  Q 359.53 196.28 349.78 195.42
  A 1.16 1.16 0.0 0 1 348.82 193.80
  Q 349.54 192.15 351.00 192.00
  C 358.31 191.27 364.83 191.89 368.52 183.96
  C 370.42 179.87 368.42 175.12 366.79 171.31
  C 364.81 166.65 363.25 161.54 360.23 157.00
  Q 359.58 156.02 359.19 155.58
  L 358.70 153.42
  Q 358.59 152.96 358.22 152.67
  L 356.33 151.18
  Q 355.77 150.74 356.47 150.87
  C 358.76 151.31 360.22 153.16 361.77 154.65
  C 363.83 156.65 364.15 159.43 366.09 161.48
  Q 366.43 161.84 366.57 162.31
  Q 367.71 166.15 368.88 169.96
  C 369.55 172.16 370.77 174.52 371.49 176.93
  C 373.42 183.39 368.17 189.22 362.77 191.61
  A 0.67 0.66 -12.7 0 0 362.38 192.21
  Q 362.38 192.36 362.38 192.50
  A 0.37 0.36 -22.4 0 0 363.00 192.75
  L 363.23 192.51
  Q 363.27 192.48 363.32 192.50
  Q 364.41 193.07 365.11 194.19
  Q 365.24 194.40 364.99 194.39
  Q 364.85 194.38 364.75 194.24
  A 0.27 0.27 0.0 0 0 364.28 194.30
  Q 363.90 195.27 364.50 195.68
  Q 364.83 195.90 365.52 195.84
  Q 367.65 195.67 369.73 195.73
  Z"
/>
<path fill="#ffffff" d="
  M 462.44 203.25
  C 468.42 192.89 477.59 181.57 487.97 174.64
  C 490.40 173.01 492.82 172.48 495.66 171.67
  C 502.94 169.61 515.44 177.56 518.90 183.81
  A 2.77 2.75 -46.5 0 1 518.96 186.37
  C 514.40 195.65 508.40 202.98 498.61 206.97
  C 490.13 210.43 479.41 209.29 469.50 208.82
  C 466.74 208.69 459.90 207.64 462.44 203.25
  Z"
/>
<path fill="#ffffff" d="
  M 196.74 172.00
  C 204.78 170.61 214.44 179.32 220.20 184.00
  C 223.68 186.84 232.75 197.41 232.95 203.11
  C 233.10 207.51 224.83 208.65 221.75 208.77
  C 210.29 209.20 200.41 208.64 191.61 200.56
  C 187.14 196.45 183.88 190.50 181.48 184.73
  C 180.34 181.98 182.98 178.62 185.05 177.06
  Q 190.28 173.11 196.74 172.00
  Z"
/>
<path fill="#680a06" d="
  M 669.51 239.07
  L 668.35 238.97
  Q 667.60 238.90 667.75 238.16
  L 667.85 237.64
  Q 667.92 237.26 668.28 237.10
  Q 668.73 236.89 668.91 236.42
  Q 669.08 235.98 669.46 235.68
  Q 670.78 234.65 672.15 233.71
  Q 673.35 232.88 674.50 231.65
  C 676.39 229.62 678.82 228.16 680.70 226.44
  C 681.75 225.48 682.71 224.44 683.87 223.62
  Q 684.47 223.20 685.30 222.03
  Q 688.36 217.72 691.56 213.48
  Q 691.84 213.10 691.87 212.63
  Q 691.93 211.86 692.67 211.49
  A 1.26 1.24 -86.0 0 0 693.17 211.05
  C 694.81 208.54 696.68 206.72 695.51 203.37
  Q 693.54 197.70 690.22 195.41
  Q 688.27 194.07 687.45 193.27
  Q 687.12 192.96 686.68 192.86
  C 681.64 191.81 677.20 191.90 673.93 195.80
  Q 673.22 196.65 673.34 197.77
  Q 673.38 198.08 673.07 198.13
  Q 672.92 198.15 672.79 198.21
  Q 672.65 198.27 672.63 198.43
  Q 672.42 199.51 671.82 200.44
  Q 671.57 200.82 671.16 200.61
  L 669.35 199.62
  Q 670.29 193.27 676.06 191.30
  C 679.75 190.04 687.19 190.15 690.27 192.97
  C 696.91 199.06 700.31 205.40 694.36 213.68
  C 687.01 223.92 681.61 232.47 669.51 239.07
  Z"
/>
<path fill="#680a06" d="
  M 488.86 258.11
  Q 488.18 260.01 489.09 262.26
  Q 489.25 262.66 488.82 262.64
  Q 488.66 262.63 488.50 262.63
  Q 488.36 262.63 488.37 262.49
  Q 488.39 262.16 488.32 261.94
  Q 488.25 261.70 488.08 261.65
  Q 487.94 261.60 487.80 261.70
  Q 487.62 261.83 487.48 261.66
  Q 486.63 260.72 486.13 259.59
  Q 486.09 259.49 486.17 259.55
  L 486.50 259.79
  A 0.38 0.25 72.4 0 0 486.68 259.17
  L 482.33 255.33
  A 1.51 1.50 41.3 0 0 480.21 255.46
  Q 478.81 257.04 476.69 258.60
  Q 474.22 260.41 476.08 262.66
  Q 476.35 263.00 476.43 263.43
  Q 476.68 264.82 477.68 265.85
  Q 477.93 266.11 478.05 266.45
  Q 478.57 267.92 479.88 268.52
  Q 480.37 268.75 480.79 269.09
  Q 482.00 270.06 483.04 271.21
  Q 483.35 271.55 483.80 271.64
  Q 484.44 271.76 484.79 272.32
  Q 485.09 272.79 484.54 272.70
  L 479.86 271.95
  C 465.11 266.47 478.90 238.71 488.86 258.11
  Z"
/>
<path fill="#680a06" d="
  M 533.72 270.04
  L 532.27 271.03
  L 530.88 270.70
  Q 530.29 270.57 530.56 270.02
  Q 531.19 268.79 532.51 269.10
  Q 532.96 269.20 532.72 269.59
  L 532.39 270.11
  Q 532.32 270.24 532.45 270.18
  Q 533.11 269.90 533.72 270.04
  Z"
/>
</svg>
